PathFileType        4      (X/Y/Z)      C:\Users\pc\Desktop\IMUTRC\Sujet_07\Sujet_07_Tpose.trc         
DataRate	CameraRate	NumFrames	NumMarkers	Units	OrigDataRate	OrigDataStartFrame	OrigNumFrames
60.0	60.0	4	64	mm	60.0	74	146
Frame#	Time	pHipOrigin			pRightASI			pLeftASI			pRightCSI			pLeftCSI			pRightIschialTub			pLeftIschialTub			pSacrum			pL5SpinalProcess			pL3SpinalProcess			pT12SpinalProcess			pIJ			pT4SpinalProcess			pT8SpinalProcess			pPX			pC7SpinalProcess			pTopOfHead			pRightAuricularis			pLeftAuricularis			pBackOfHead			pRightAcromion			pLeftAcromion			pRightArmLatEpicondyle			pRightArmMedEpicondyle			pLeftArmLatEpicondyle			pLeftArmMedEpicondyle			pRightUlnarStyloid			pRightRadialStyloid			pRightOlecranon			pLeftUlnarStyloid			pLeftRadialStyloid			pLeftOlecranon			pRightTopOfHand			pRightPinky			pRightBallHand			pLeftTopOfHand			pLeftPinky			pLeftBallHand			pRightGreaterTrochanter			pRightKneeLatEpicondyle			pRightKneeMedEpicondyle			pRightPatella			pLeftGreaterTrochanter			pLeftKneeLatEpicondyle			pLeftKneeMedEpicondyle			pLeftPatella			pRightTibialTub			pRightLatMalleolus			pRightMedMalleolus			pLeftTibialTub			pLeftLatMalleolus			pLeftMedMalleolus			pRightHeelFoot			pRightFirstMetatarsal			pRightFifthMetatarsal			pRightPivotFoot			pRightHeelCenter			pRightToe			pLeftHeelFoot			pLeftFirstMetatarsal			pLeftFifthMetatarsal			pLeftPivotFoot			pLeftHeelCenter			pLeftToe			
		X1	Y1	Z1	X2	Y2	Z2	X3	Y3	Z3	X4	Y4	Z4	X5	Y5	Z5	X6	Y6	Z6	X7	Y7	Z7	X8	Y8	Z8	X9	Y9	Z9	X10	Y10	Z10	X11	Y11	Z11	X12	Y12	Z12	X13	Y13	Z13	X14	Y14	Z14	X15	Y15	Z15	X16	Y16	Z16	X17	Y17	Z17	X18	Y18	Z18	X19	Y19	Z19	X20	Y20	Z20	X21	Y21	Z21	X22	Y22	Z22	X23	Y23	Z23	X24	Y24	Z24	X25	Y25	Z25	X26	Y26	Z26	X27	Y27	Z27	X28	Y28	Z28	X29	Y29	Z29	X30	Y30	Z30	X31	Y31	Z31	X32	Y32	Z32	X33	Y33	Z33	X34	Y34	Z34	X35	Y35	Z35	X36	Y36	Z36	X37	Y37	Z37	X38	Y38	Z38	X39	Y39	Z39	X40	Y40	Z40	X41	Y41	Z41	X42	Y42	Z42	X43	Y43	Z43	X44	Y44	Z44	X45	Y45	Z45	X46	Y46	Z46	X47	Y47	Z47	X48	Y48	Z48	X49	Y49	Z49	X50	Y50	Z50	X51	Y51	Z51	X52	Y52	Z52	X53	Y53	Z53	X54	Y54	Z54	X55	Y55	Z55	X56	Y56	Z56	X57	Y57	Z57	X58	Y58	Z58	X59	Y59	Z59	X60	Y60	Z60	X61	Y61	Z61	X62	Y62	Z62	X63	Y63	Z63	X64	Y64	Z64	
74	1.217	-0.3844247311748268	1002.55142	-4.680696833919132	64.91188920018239	1106.80904	139.5994898900027	76.43717343979313	1105.10112	-144.422787984676	19.88373441975792	1177.20522	112.1448017407733	29.351931462592955	1175.79432	-121.53223659349041	-61.75715986956864	943.81368	51.71889862524671	-57.00946832490861	943.07111	-65.06890434876965	-70.27054051460722	1025.42275	-7.6445335533730026	-32.04203408483169	1117.72491	-6.580888987217711	-34.32003247626056	1234.68058	-7.981840033702736	-53.919877156881164	1339.53226	-10.123073226409241	48.15502616095034	1595.79513	-10.783051950574366	-97.43628381200475	1535.34947	-15.097145936906765	-79.51379966684453	1443.4186	-12.723899074171914	77.8256278910639	1471.33944	-7.371961638272086	-107.58467561929822	1594.38423	-13.410735711558702	-43.58318953552781	1862.23128	-12.729701368561507	-31.831273144342244	1756.56276	53.648222355603615	-67.09102429421372	1763.76574	-86.66661719058385	-104.51064671903467	1762.87465	-2.546949950750238	-74.23277772246178	1577.67628	174.76314260227102	-61.942916172495416	1577.00796	-202.36578202025802	-41.059192918528	1501.48802	448.49356825266295	14.194518741482739	1471.48796	434.1776323507635	-33.73124832537479	1466.5127	-471.18074409772817	20.599524325679567	1436.43839	-454.04656274382796	78.95611720129068	1427.67599	679.9287134390019	70.77588771720247	1479.73055	692.6121465230156	-12.752543257455983	1462.28002	431.3957728476339	-22.27247126080124	1386.31453	-717.5135081661746	-41.35571037933573	1436.28987	-726.0446084398869	0.9101380826621437	1428.49283	-454.69608540107413	250.89779846651277	1423.66608	773.4543655488233	180.33937989670756	1399.3096	714.6251914134374	115.82542124972235	1434.6562	684.2376655874133	22.853585547796797	1381.6363	-910.6248313039059	22.09166905150107	1359.35903	-818.1168732211969	-1.3179825858857726	1394.33435	-750.6889271977549	-8.789832174151755	971.14047	170.27423591563453	-55.54795669282815	529.902	152.7961432486141	-52.06197916201161	526.26338	67.00563305119631	-5.7174589091524695	526.11487	109.11104932083944	4.080187743314951	970.54641	-179.9387124758413	-52.540527080586614	530.27329	-168.89861763997547	-55.32638856003097	526.04061	-83.13262401472883	-6.034365756806686	525.29803	-121.726651917757	4.9294071036297495	489.6544	111.31373644532239	-65.13889219677569	84.35659999999999	159.6061308335674	-62.34222313726514	81.38629	94.16799793053924	6.167290251088382	491.73361	-123.25654005990928	-43.2451973494118	84.43085000000002	-179.65206100747585	-45.2131282645801	80.86649	-114.16418467661882	-102.54497907994454	-7.138061680832742E-15	116.5733938275516	65.89518157663909	0.5197999999999917	135.9656775352845	39.05440203710951	3.638619999999987	210.67315141250492	74.07212302815316	2.227729999999989	179.8722194907461	-64.36250899699206	5.198029999999992	130.04353568539926	161.0560342166146	1.485149999999987	211.14270587127197	-82.88626860439346	0.07426000000000824	-134.45711152738943	84.12959161564822	-0.66831999999999	-163.3900270983234	53.083564250270406	2.7475300000000145	-236.4486503283153	89.75208641911583	1.0396100000000126	-207.73249376322127	-45.58755108465581	4.9752600000000085	-150.05038532873448	174.79831302368518	-0.3712899999999851	-243.94755923435142	
75	1.233	-0.48586077765985913	1002.55142	-4.653524447688137	64.84757815369737	1106.80904	139.56235989000268	76.27142134682305	1105.10112	-144.43273693819097	19.81942337327289	1177.20522	112.10767174077331	29.25049041610792	1175.86858	-121.50505554700537	-61.75715986956864	943.81368	51.71889862524671	-57.073770711139616	943.07111	-65.10602934876965	-70.37197656109225	1025.42275	-7.6173611671420085	-32.10634513131672	1117.72491	-6.61801898721771	-34.421464862491554	1234.68058	-7.954653987217703	-54.02131820336619	1339.53226	-10.095892179924212	48.08076616095035	1595.79513	-10.6544298576043	-97.57485485848977	1535.42372	-15.005653843936697	-79.61523205307552	1443.49286	-12.69671302768688	77.7884978910639	1471.33944	-7.307650591787055	-107.65893061929822	1594.38423	-13.282122278842673	-43.7217469217588	1862.23128	-12.63821293584548	-31.868398144342244	1756.56276	53.712524741834606	-67.22958168044472	1763.76574	-86.57512875786783	-104.68634276551971	1762.87465	-2.391155471549182	-74.30703272246177	1577.67628	174.89175603498703	-62.01717117249542	1577.15648	-202.23716858754196	-41.03201187204294	1501.48802	448.59500929914793	14.194518741482739	1471.4137	434.1776323507635	-33.76837832537478	1466.58696	-471.1164330512431	20.626705372164594	1436.5869	-453.9451216973429	78.84472720129071	1427.60174	680.1216465784569	70.63731667071744	1479.58203	692.7036386159856	-12.72537087122501	1462.20576	431.4972088941189	-22.14384916783115	1386.5373	-717.4392481661746	-41.18995828636565	1436.51264	-726.034659486372	0.8730080826621531	1428.64134	-454.63177435458914	250.75924108028175	1423.2948	773.5458539815393	180.09937280373754	1399.01257	714.7438558926384	115.64972520323732	1434.43343	684.3934600666142	23.08364002699784	1381.93333	-910.5777573503909	22.32173219095614	1359.5818	-818.0697942676818	-1.125049446430637	1394.55712	-750.5775371977549	-8.854143220636786	971.14047	170.23710591563452	-55.61225907905915	529.902	152.7590182486141	-52.09910416201161	526.26338	67.06993543742732	-5.7174589091524695	526.18912	109.11104932083944	3.97874669682993	970.62067	-179.91153142935624	-52.540527080586614	530.27329	-168.89861763997547	-55.32638856003097	526.04061	-83.13262401472883	-6.034365756806686	525.29803	-121.726651917757	4.8650960571447115	489.6544	111.27660644532239	-65.13889219677569	84.35659999999999	159.6061308335674	-62.34222313726514	81.38629	94.16799793053924	6.167290251088382	491.73361	-123.25654005990928	-43.2451973494118	84.43085000000002	-179.65206100747585	-45.2131282645801	80.86649	-114.16418467661882	-102.54497907994454	-7.138061680832742E-15	116.5733938275516	65.93231157663908	0.5197999999999917	135.90136648879945	39.05440203710951	3.638619999999987	210.67315141250492	74.07212302815316	2.227729999999989	179.8722194907461	-64.36250899699206	5.198029999999992	130.04353568539926	161.0560342166146	1.485149999999987	211.14270587127197	-82.88626860439346	0.07426000000000824	-134.45711152738943	84.09246161564823	-0.66831999999999	-163.32571605183838	53.083564250270406	2.7475300000000145	-236.4486503283153	89.75208641911583	1.0396100000000126	-207.73249376322127	-45.58755108465581	4.9752600000000085	-150.05038532873448	174.79831302368518	-0.3712899999999851	-243.94755923435142	
76	1.25	-0.5501718241448914	1002.55142	-4.6906544476881376	64.81044815369737	1106.80904	139.62667093648773	76.20711030033802	1105.10112	-144.46986693819096	19.717982326787855	1177.20522	112.13485278725834	29.186179369622884	1175.86858	-121.54218554700537	-61.85859225579965	943.81368	51.74608467173174	-57.175211757624645	943.14537	-65.07884830228461	-70.43628760757727	1025.42275	-7.654491167142006	-32.20778617780175	1117.72491	-6.590837940732677	-34.52290590897658	1234.68058	-7.927472940732668	-54.12275924985122	1339.53226	-10.068711133439178	48.006511160950346	1595.86938	-10.525816424888275	-97.61198485848978	1535.42372	-14.941342797451663	-79.71666809956056	1443.49286	-12.669540641455892	77.6870655048329	1471.33944	-7.280464545302023	-107.73319061929821	1594.38423	-13.15350018587261	-43.924629014728865	1862.30554	-12.583850842875414	-32.00696053057324	1756.63702	53.80402183480468	-67.36815272692976	1763.76574	-86.48363666489776	-104.7606027655197	1762.87465	-2.26253337857912	-74.34416272246177	1577.60202	174.95606708147207	-62.09143117249542	1577.23073	-202.10854649457193	-41.00483948581197	1501.48802	448.69644534563304	14.157393741482736	1471.26519	434.24193473699444	-33.84263832537479	1466.66122	-470.98781095827303	20.58958037216462	1436.66116	-453.88081931111196	78.70616981505964	1427.45322	680.213135011173	70.56306167071745	1479.43352	692.8322520487015	-12.762500871225	1462.1315	431.56151994060394	-21.913794688630105	1386.76007	-717.3921742126597	-40.997033807164655	1436.66116	-725.923274486372	0.9001891291471793	1428.7156	-454.530333308104	250.58354003379685	1423.07202	773.7016571209944	179.92368041750655	1398.7898	714.8996640320935	115.51115915675234	1434.28492	684.4849434993304	23.378005552683987	1382.23036	-910.493553396876	22.653222716642233	1359.87883	-818.0498927003979	-0.8949999672296372	1394.77989	-750.5304545839859	-8.918445606867778	971.14047	170.1999809156345	-55.61225907905915	529.902	152.7590182486141	-52.163415208496644	526.26338	67.03280543742733	-5.7817699556375	526.18912	109.07391932083945	3.914444310598924	970.62067	-179.94865642935625	-52.60483812707166	530.27329	-168.93574763997546	-55.390699606516016	526.11487	-83.16975401472882	-6.098668143037678	525.29803	-121.76377691775699	4.8650960571447115	489.72866	111.27660644532239	-65.13889219677569	84.35659999999999	159.6061308335674	-62.34222313726514	81.38629	94.16799793053924	6.167290251088382	491.73361	-123.25654005990928	-43.2451973494118	84.43085000000002	-179.65206100747585	-45.2131282645801	80.86649	-114.16418467661882	-102.54497907994454	-7.138061680832742E-15	116.5733938275516	65.93231157663908	0.5197999999999917	135.90136648879945	39.091527037109515	3.638619999999987	210.6088490262739	74.07212302815316	2.227729999999989	179.8722194907461	-64.36250899699206	5.198029999999992	130.04353568539926	161.0560342166146	1.410889999999987	211.14270587127197	-82.88626860439346	0.07426000000000824	-134.45711152738943	84.09246161564823	-0.66831999999999	-163.32571605183838	53.083564250270406	2.7475300000000145	-236.4486503283153	89.75208641911583	1.0396100000000126	-207.73249376322127	-45.58755108465581	4.9752600000000085	-150.05038532873448	174.76118302368516	-0.3712899999999851	-243.88324818786631	
77	1.267	-0.6516128706299236	1002.55142	-4.663473401203105	64.68183472098133	1106.80904	139.5524159364877	76.16998530033801	1105.10112	-144.40556455195994	19.653679940556863	1177.20522	112.09772778725834	29.084751983391897	1175.86858	-121.51500816077439	-61.92290330228468	943.81368	51.70895467173174	-57.239522804109676	943.14537	-65.11597830228462	-70.53771999380827	1025.42275	-7.627305120656975	-32.27209722428679	1117.72491	-6.627967940732678	-34.62434695546161	1234.68058	-7.900291894247638	-54.22420029633626	1339.53226	-10.041530086954145	47.932251160950344	1595.86938	-10.39719433191821	-97.75054224472076	1535.42372	-14.849854364735643	-79.75379809956057	1443.49286	-12.605229594970858	77.61281050483291	1471.33944	-7.151851112585994	-107.87175666578325	1594.38423	-13.062016753156579	-44.16462744744489	1862.30554	-12.465181363674356	-32.14552657705827	1756.63702	53.8955052675207	-67.60815981989981	1763.76574	-86.3649721856967	-104.89916881200475	1762.8004	-2.171049945863088	-74.48272010869277	1577.52776	175.0475555141881	-62.294299605211435	1577.23073	-202.05418806185585	-41.10627187204295	1501.3395	448.723631392118	14.01882269499771	1471.11667	434.3334268299645	-33.98119571160578	1466.66122	-470.896322525557	20.51532037216461	1436.73542	-453.7521972181419	78.50328772208962	1427.30471	680.267497104143	70.3601882380014	1479.285	692.8866191416718	-12.901058257455986	1462.05725	431.65300837332	-21.646615209429058	1386.90859	-717.4094026453756	-40.831281714194574	1436.80967	-725.913325532857	0.7616230826621404	1428.78986	-454.43884987538803	250.37071398731177	1422.99777	773.9217626466805	179.74798437102146	1398.71554	715.0554585112945	115.4368991567523	1434.1364	684.6135655923005	23.773807124855068	1382.52739	-910.436521829592	22.984718242328313	1360.17586	-818.0299997933679	-0.6278154880285456	1395.00266	-750.5476916769559	-9.019881653352812	971.14047	170.22715330186554	-55.67657012554419	529.902	152.7218882486141	-52.163415208496644	526.26338	67.03280543742733	-5.7817699556375	526.18912	109.07391932083945	3.8130032641139024	970.62067	-179.92147538287122	-52.64196812707166	530.27329	-168.87143659349044	-55.390699606516016	526.04061	-83.16975401472882	-6.098668143037678	525.29803	-121.76377691775699	4.800785010659688	489.72866	111.2394764453224	-65.13889219677569	84.35659999999999	159.6061308335674	-62.34222313726514	81.38629	94.16799793053924	6.102987864857383	491.73361	-123.29366505990929	-43.2451973494118	84.43085000000002	-179.65206100747585	-45.2131282645801	80.86649	-114.16418467661882	-102.54497907994454	-7.138061680832742E-15	116.5733938275516	65.93231157663908	0.5197999999999917	135.90136648879945	39.091527037109515	3.638619999999987	210.6088490262739	74.07212302815316	2.227729999999989	179.8722194907461	-64.36250899699206	5.198029999999992	130.04353568539926	161.0560342166146	1.410889999999987	211.14270587127197	-82.88626860439346	0.07426000000000824	-134.45711152738943	84.09246161564823	-0.66831999999999	-163.32571605183838	53.083564250270406	2.6732700000000147	-236.4486503283153	89.75208641911583	1.0396100000000126	-207.73249376322127	-45.58755108465581	4.9752600000000085	-150.05038532873448	174.76118302368516	-0.3712899999999851	-243.88324818786631	
